<?xml version="1.0" encoding="UTF-8" standalone="no"?>
<!DOCTYPE svg PUBLIC "-//W3C//DTD SVG 1.1//EN" "http://www.w3.org/Graphics/SVG/1.1/DTD/svg11.dtd">
<svg width="100%" height="100%" viewBox="0 0 81 81" version="1.1" xmlns="http://www.w3.org/2000/svg" xmlns:xlink="http://www.w3.org/1999/xlink" xml:space="preserve" xmlns:serif="http://www.serif.com/" style="fill-rule:evenodd;clip-rule:evenodd;stroke-linejoin:round;stroke-miterlimit:2;">
    <g transform="matrix(1,0,0,1,-252.566,-302.155)">
        <g transform="matrix(1,0,0,1,292.611,342.2)">
            <g transform="matrix(1,0,0,1,-40.045,-40.045)">
                <clipPath id="_clip1">
                    <rect x="0" y="0" width="80.09" height="80.09"/>
                </clipPath>
                <g clip-path="url(#_clip1)">
                    <g id="Layer_2">
                        <g id="Layer_1-2">
                            <g transform="matrix(3.79741,0,0,2.3982,-224.072,-58.7945)">
                                <path d="M80.1,42.467C80.1,42.237 79.982,42.05 79.837,42.05L70.343,42.05C70.198,42.05 70.08,42.237 70.08,42.467L70.08,51.653C70.08,51.883 70.198,52.07 70.343,52.07L79.837,52.07C79.982,52.07 80.1,51.883 80.1,51.653L80.1,42.467Z" style="fill:url(#_Linear2);"/>
                            </g>
                            <g transform="matrix(3.79741,0,0,7.99301,0,0)">
                                <path d="M10.02,0.125C10.02,0.056 9.902,0 9.757,0L0.263,0C0.118,0 0,0.056 0,0.125L0,9.895C0,9.964 0.118,10.02 0.263,10.02L9.757,10.02C9.902,10.02 10.02,9.964 10.02,9.895L10.02,0.125Z" style="fill:rgb(56,101,171);"/>
                            </g>
                            <g transform="matrix(3.79641,0,0,3.79741,-117.589,0)">
                                <path d="M52.07,0.263C52.07,0.118 51.952,0 51.807,0L42.313,0C42.168,0 42.05,0.118 42.05,0.263L42.05,9.757C42.05,9.902 42.168,10.02 42.313,10.02L51.807,10.02C51.952,10.02 52.07,9.902 52.07,9.757L52.07,0.263Z" style="fill:rgb(56,101,171);"/>
                            </g>
                            <path d="M52.07,71.08C52.07,70.528 51.622,70.08 51.07,70.08L43.05,70.08C42.498,70.08 42.05,70.528 42.05,71.08L42.05,79.1C42.05,79.652 42.498,80.1 43.05,80.1L51.07,80.1C51.622,80.1 52.07,79.652 52.07,79.1L52.07,71.08Z" style="fill:rgb(132,175,241);"/>
                            <path d="M10.02,71.08C10.02,70.528 9.572,70.08 9.02,70.08L1,70.08C0.448,70.08 0,70.528 0,71.08L0,79.1C0,79.652 0.448,80.1 1,80.1L9.02,80.1C9.572,80.1 10.02,79.652 10.02,79.1L10.02,71.08Z" style="fill:rgb(56,101,171);"/>
                            <path d="M66.08,71.08C66.08,70.528 65.632,70.08 65.08,70.08L57.06,70.08C56.508,70.08 56.06,70.528 56.06,71.08L56.06,79.1C56.06,79.652 56.508,80.1 57.06,80.1L65.08,80.1C65.632,80.1 66.08,79.652 66.08,79.1L66.08,71.08Z" style="fill:rgb(56,101,171);"/>
                            <path d="M80.1,71.08C80.1,70.528 79.652,70.08 79.1,70.08L71.08,70.08C70.528,70.08 70.08,70.528 70.08,71.08L70.08,79.1C70.08,79.652 70.528,80.1 71.08,80.1L79.1,80.1C79.652,80.1 80.1,79.652 80.1,79.1L80.1,71.08Z" style="fill:rgb(132,175,241);"/>
                        </g>
                    </g>
                </g>
            </g>
        </g>
    </g>
    <defs>
        <linearGradient id="_Linear2" x1="0" y1="0" x2="1" y2="0" gradientUnits="userSpaceOnUse" gradientTransform="matrix(10.02,0,0,10.02,70.08,47.06)"><stop offset="0" style="stop-color:rgb(242,204,12);stop-opacity:1"/><stop offset="1" style="stop-color:rgb(255,152,48);stop-opacity:1"/></linearGradient>
    </defs>
</svg>
