<?xml version="1.0" encoding="UTF-8" standalone="no"?><!DOCTYPE svg PUBLIC "-//W3C//DTD SVG 1.1//EN" "http://www.w3.org/Graphics/SVG/1.1/DTD/svg11.dtd"><svg width="100%" height="100%" viewBox="0 0 460 460" version="1.1" xmlns="http://www.w3.org/2000/svg" xmlns:xlink="http://www.w3.org/1999/xlink" xml:space="preserve" xmlns:serif="http://www.serif.com/" style="fill-rule:evenodd;clip-rule:evenodd;stroke-linejoin:round;stroke-miterlimit:2;"><path d="M338.781,246.796c-0,-2.99 -2.428,-5.417 -5.417,-5.417l-86.568,0c-2.99,0 -5.417,2.427 -5.417,5.417l0,207.257c0,2.99 2.427,5.417 5.417,5.417l86.568,0c2.989,0 5.417,-2.427 5.417,-5.417l-0,-207.257Z" style="fill:#84aff1;"/><path d="M459.47,367.485c0,-2.989 -2.427,-5.416 -5.417,-5.416l-86.568,-0c-2.989,-0 -5.416,2.427 -5.416,5.416l-0,86.568c-0,2.99 2.427,5.417 5.416,5.417l86.568,0c2.99,0 5.417,-2.427 5.417,-5.417l0,-86.568Z" style="fill:#3865ab;"/><path d="M459.47,246.796c0,-2.99 -2.427,-5.417 -5.417,-5.417l-86.568,0c-2.989,0 -5.416,2.427 -5.416,5.417l-0,86.568c-0,2.989 2.427,5.417 5.416,5.417l86.568,-0c2.99,-0 5.417,-2.428 5.417,-5.417l0,-86.568Z" style="fill:#3865ab;"/><path d="M459.47,5.417c0,-2.99 -2.427,-5.417 -5.417,-5.417l-207.257,0c-2.99,0 -5.417,2.427 -5.417,5.417l0,207.257c0,2.99 2.427,5.417 5.417,5.417l207.257,0c2.99,0 5.417,-2.427 5.417,-5.417l0,-207.257Z" style="fill:url(#_Linear1);"/><path d="M218.091,5.417c0,-2.99 -2.427,-5.417 -5.417,-5.417l-207.257,-0c-2.99,-0 -5.417,2.427 -5.417,5.417l0,448.636c0,2.99 2.427,5.417 5.417,5.417l207.257,0c2.99,0 5.417,-2.427 5.417,-5.417l0,-448.636Z" style="fill:#3865ab;"/><defs><linearGradient id="_Linear1" x1="0" y1="0" x2="1" y2="0" gradientUnits="userSpaceOnUse" gradientTransform="matrix(1.33542e-14,218.091,-218.091,1.33542e-14,350.425,1.21503e-12)"><stop offset="0" style="stop-color:#f2cc0c;stop-opacity:1"/><stop offset="1" style="stop-color:#ff9830;stop-opacity:1"/></linearGradient></defs></svg>